<svg xmlns="http://www.w3.org/2000/svg" viewBox="0 0 100 42.78">
<defs><style>.cls-1{fill:#e47128;}.cls-2{fill:#62aeb2;}.cls-3{fill:#e5ad24;}.cls-4{fill:#00878f;}</style></defs>
<rect class="cls-1" x="65.96" y="25.89" width="34.04" height="2.27"/>
<rect class="cls-1" x="65.96" y="36.72" width="34.04" height="2.27"/>
<path class="cls-2" d="M28.57,10.37l.19-.35a16.4,16.4,0,0,0-5.36-1.8,15.58,15.58,0,0,0-2.25-.16A14.08,14.08,0,0,0,7.85,17l1.92.71a12,12,0,0,1,11.38-7.6,14.58,14.58,0,0,1,2,.14c3.47.49,6.81,2.39,9.91,5.63l1.14-1.09A22.33,22.33,0,0,0,28.57,10.37Z"/>
<path class="cls-2" d="M14.55,34.32a14.42,14.42,0,0,1-8.48-12.9,13.84,13.84,0,0,1,2.34-7.71,14.56,14.56,0,0,1,2-2.42l1,1a13.32,13.32,0,0,0-1.85,2.2,12.53,12.53,0,0,0-2.1,7,12.86,12.86,0,0,0,7.69,11.66Z"/>
<path class="cls-2" d="M39.64,23.1,39,21.71c0-.1-.12-.25-.21-.41-1,2-6.5,11.56-15.48,12.84a15.83,15.83,0,0,1-2.21.35,14,14,0,0,1-6-1.31l-.68,1.25a15.58,15.58,0,0,0,6.64,1.46,18,18,0,0,0,2.41-.17c8.67-1.24,14.14-9.16,16.15-12.65Z"/>
<path class="cls-1" d="M41.54,29.78a33.36,33.36,0,0,1-5.78,6.14l.5.62a34.06,34.06,0,0,0,5.73-6c3.57,4.88,9.52,10.66,18.14,11.89l.2-1.43c-8.81-1.26-14.71-7.49-18.22-12.79C42,27.93,41.54,29.78,41.54,29.78Z"/>
<path class="cls-3" d="M64.58,35.72a16.76,16.76,0,0,1-3.46-.13,17.48,17.48,0,0,1-7.63-3.15l-.75,1.06a18.2,18.2,0,0,0,10.77,3.56c.36,0,.71,0,1.07,0Z"/>
<path class="cls-1" d="M40.32,22.8l-.68.3L39,21.71a31.69,31.69,0,0,0-4.88-6.92L33,15.88a28.33,28.33,0,0,1,4.42,6l2.09,3.64,1.77-1Z"/>
<path class="cls-2" d="M63.49,34.49a15.17,15.17,0,0,1-2.22-.16C52,33,46.58,23.6,45.59,21.72L47,21C47.59,22,52.83,31.49,61.5,32.72a13.33,13.33,0,0,0,2,.15v1.62Z"/>
<path class="cls-4" d="M76.41,17.8a12.58,12.58,0,0,0-3.34-5.35,13.51,13.51,0,0,0-7.52-3.62L65.82,7a15.44,15.44,0,0,1,8.54,4.12,14.39,14.39,0,0,1,3.82,6.15Z"/>
<path class="cls-4" d="M51.6,11.9l-.88-1A19.68,19.68,0,0,1,60.92,6a18.5,18.5,0,0,1,2.57-.18,16.65,16.65,0,0,1,11.6,4.57l-.92,1A15.35,15.35,0,0,0,63.49,7.09a17.32,17.32,0,0,0-2.38.17A18.26,18.26,0,0,0,51.6,11.9Z"/>
<path class="cls-3" d="M44.86,24.81l-4.6-2.18,1.09-2.3A35.62,35.62,0,0,1,49.48,9.48L51.4,7.8l3.36,3.83-1.92,1.68A31.17,31.17,0,0,0,46,22.51Z"/>
<path class="cls-4" d="M5.91,27.56A15.36,15.36,0,0,1,9.45,10.25a16.23,16.23,0,0,1,3.64-2.63L13.84,9a14.84,14.84,0,0,0-3.29,2.38A13.8,13.8,0,0,0,7.37,26.92Z"/>
<path class="cls-3" d="M11.4,12.28l-1-1A15.39,15.39,0,0,1,21.15,7.06a17.46,17.46,0,0,1,2.39.17,17,17,0,0,1,5.69,1.92l-.66,1.22a15.41,15.41,0,0,0-5.23-1.76,14.67,14.67,0,0,0-2.19-.16A14,14,0,0,0,11.4,12.28Z"/>
<path class="cls-3" d="M1.87,21.5H1A18.9,18.9,0,0,1,7,7.72l.58.62A18.09,18.09,0,0,0,1.87,21.5Z"/>
<path class="cls-4" d="M35.47,6.9a23,23,0,0,0-11.17-5,22.34,22.34,0,0,0-3.15-.22A20.88,20.88,0,0,0,9.69,5.05l-.62-1A22,22,0,0,1,21.15.56a24.55,24.55,0,0,1,3.31.23A24.11,24.11,0,0,1,36.18,6Z"/>
<path class="cls-4" d="M43.44,14.25,41.2,12.68C44.78,7.61,51,1.3,60.07,0l.38,2.71C52.3,3.87,46.7,9.63,43.44,14.25Z"/>
<path class="cls-2" d="M46,14.58l-1.58-1.19C47.54,9.25,52.87,4.09,60.5,3a21.36,21.36,0,0,1,3-.21,19.94,19.94,0,0,1,7.4,1.39L70.16,6a18.12,18.12,0,0,0-6.67-1.25A19,19,0,0,0,60.78,5C53.82,6,48.9,10.74,46,14.58Z"/>
<path class="cls-2" d="M42.81,17.81l-2.21-.9.66-1.62.06-.09c2.85-4.52,9.11-12.31,19-13.71a21.53,21.53,0,0,1,3.2-.23V3.64a19.9,19.9,0,0,0-2.87.21c-8.4,1.2-14,7.46-17.23,12.54Z"/>
<path class="cls-2" d="M42.77,15.36,41.63,14A33.35,33.35,0,0,0,35.3,7.13L36.36,5.8A35.15,35.15,0,0,1,43,13l1.08,1.33Z"/>
<path class="cls-1" d="M77.91,7.4A20.74,20.74,0,0,0,63.49,1.69a23.82,23.82,0,0,0-3.15.22L60.18.79A24.55,24.55,0,0,1,63.49.56a21.84,21.84,0,0,1,15.2,6Z"/>
<path class="cls-4" d="M24,39l-.41-2.89C35.16,34.45,40.92,21,41,20.86c.26-.62,6.43-15.13,19.65-17L61,6.74C49.44,8.39,43.72,21.84,43.67,22,43.41,22.6,37.23,37.1,24,39Z"/>
<path class="cls-4" d="M11.88,36.07l1.27-2.18a16,16,0,0,0,10.42,1.94l.36,2.5a19.48,19.48,0,0,0,7-2.46l-2.11-3.68a15.38,15.38,0,0,1-5.5,1.94,16.23,16.23,0,0,1-2.19.15,13.9,13.9,0,0,1-9.67-3.8,12.57,12.57,0,0,1-2.88-4.09L4.94,28a16.74,16.74,0,0,0,3.77,5.36l-.18.2A18.6,18.6,0,0,0,11.88,36.07Z"/>
<path class="cls-4" d="M21.14,39.64A19.25,19.25,0,0,1,7.76,34.35l.8-.84a18.06,18.06,0,0,0,12.58,5,20.11,20.11,0,0,0,2.78-.2c9.53-1.36,15.28-9.42,17.88-14.13l.65-1.55,1.07.45-.69,1.64c-2.69,4.89-8.7,13.3-18.75,14.74A20.87,20.87,0,0,1,21.14,39.64Z"/>
<path class="cls-4" d="M21.14,42.78A22.36,22.36,0,0,1,5.6,36.61l1.46-1.53a20.27,20.27,0,0,0,14.08,5.57,21.51,21.51,0,0,0,3.09-.22,22.62,22.62,0,0,0,11.11-5l1.34,1.64a24.61,24.61,0,0,1-12.15,5.48A24.28,24.28,0,0,1,21.14,42.78Z"/>
<path class="cls-3" d="M24.32,41.09l-.26-1.84C32.62,38,38.28,31.66,41.52,26.53c.1-.18,1-1.69,1.31-2.33l1.65.86c-.37.71-1.32,2.34-1.36,2.41l0,0C39.65,33,33.59,39.76,24.32,41.09Z"/>
<path class="cls-2" d="M12,36A16.71,16.71,0,0,1,3.44,21.42a17.44,17.44,0,0,1,.2-2.61L5,19a16,16,0,0,0-.18,2.4A15.37,15.37,0,0,0,12.62,34.8Z"/>
<path class="cls-1" d="M5.56,19.12,3,18.72A17.37,17.37,0,0,1,10.18,7.3,19.37,19.37,0,0,1,27.31,4.81l-.8,2.42a16.75,16.75,0,0,0-2.88-.68C14.82,5.3,6.88,10.82,5.56,19.12Z"/>
<path class="cls-3" d="M5.23,37A21.78,21.78,0,0,1,0,29.24l3-1.16A18.44,18.44,0,0,0,7.43,34.7Z"/>
<path class="cls-2" d="M21.14,41.32A21,21,0,0,1,6.6,35.56a19.51,19.51,0,0,1-6-12.67v0l0-1.41,1.86-.07.05,1.39A17.69,17.69,0,0,0,7.89,34.22a19,19,0,0,0,13.25,5.24,20.48,20.48,0,0,0,2.92-.21l.26,1.84A22.79,22.79,0,0,1,21.14,41.32Z"/>
<path class="cls-3" d="M29.67,34.82l-.58-1,.51-.29c6.55-3.76,10.21-11,10.88-12.36l.25-.52,1,.5-.25.52C40.83,23.13,37,30.6,30.17,34.53Z"/>
<path class="cls-4" d="M44.06,20.66a26.73,26.73,0,0,0-1.26-2.54l.3-.16c-2.73-5-8.84-13.5-19-15a21.36,21.36,0,0,0-3-.21v2A19,19,0,0,1,23.77,5a18.45,18.45,0,0,1,3.16.74L26.2,7.9C35.62,11,40.36,22.07,40.4,22.18c.26.63,6.55,15.4,20.06,17.32L61,35.58C49.76,34,44.12,20.79,44.06,20.66Z"/>
<path class="cls-3" d="M81.33,21.5h-1.6A15.24,15.24,0,0,0,74.43,10,16.93,16.93,0,0,0,60.94,6.16l-.23-1.57A18.47,18.47,0,0,1,75.47,8.8,16.84,16.84,0,0,1,81.33,21.5Z"/>
<rect class="cls-3" x="19.11" y="14.79" width="4.33" height="13.42"/>
<rect class="cls-4" x="14.57" y="19.34" width="13.42" height="4.33"/>
<path class="cls-2" d="M85.27,23.36l-1.7-.15a17.73,17.73,0,0,0,.08-1.79A19,19,0,0,0,77.71,7.61l1.18-1.24a20.68,20.68,0,0,1,6.47,15.05C85.36,22.07,85.33,22.72,85.27,23.36Z"/>
<path class="cls-4" d="M79.42,24.36l-1.11-.22a14,14,0,0,0-4.13-12.93l.79-.82a15.16,15.16,0,0,1,4.74,11A15.49,15.49,0,0,1,79.42,24.36Z"/>
<path class="cls-1" d="M77.47,24.63,74.9,24a10,10,0,0,0,.32-2.56c0-6.07-5.26-11-11.73-11a13.89,13.89,0,0,0-1.92.14l-.5.08L60.59,8l.61-.1a16,16,0,0,1,2.29-.16c7.93,0,14.39,6.13,14.39,13.66A12.78,12.78,0,0,1,77.47,24.63Z"/>
<path class="cls-4" d="M56.22,11l-.31-.55c-6.09,3.37-9.66,10-10.31,11.27L45,23.05l-.69-.34-.28.63,2.42,1.08L47.5,22c.64-1.19,5.59-9.91,13.57-11.38l-.24-1.3A15.1,15.1,0,0,0,56.22,11Z"/>
<path class="cls-2" d="M63.49,40.25a22,22,0,0,1-3-.21,22.85,22.85,0,0,1-12.42-6.22l1.62-1.75a20.46,20.46,0,0,0,11.13,5.6,19.34,19.34,0,0,0,3.21.19l.06,2.39Z"/>
<path class="cls-4" d="M68.71,34.59,70,30.48h1.15l1.31,4.11H71.4l-.23-.86H70l-.22.86Zm1.83-3.21-.37,1.48h.76Z"/>
<path class="cls-4" d="M73.07,30.48h1.76c1.21,0,1.66.58,1.66,1.37a1.29,1.29,0,0,1-.72,1.24l.86,1.5H75.28l-.62-1.3h-.51v1.3H73.07V30.48Zm2.13,1.38c0-.34-.13-.51-.57-.51h-.48v1.08h.5C75,32.43,75.2,32.28,75.2,31.86Z"/>
<path class="cls-4" d="M77,30.48h1.35c1.54,0,2,.73,2,2a1.82,1.82,0,0,1-2,2.09H77V30.48Zm1.08.87v2.38h.38c.82,0,.88-.5.88-1.18s-.08-1.2-1-1.2Z"/>
<path class="cls-1" d="M83.46,30.48h.86v2.66c0,1.19-.92,1.45-1.65,1.45s-1.59-.23-1.59-1.46V30.48h1.08V33c0,.67.25.82.64.82s.66-.2.66-.82V30.48Z"/>
<path class="cls-4" d="M85.19,33.73h1.08V31.35H85.19v-.87h3v.87h-.87v2.38h.87v.86h-3Z"/>
<path class="cls-1" d="M90.17,34.59H89.09V30.48h1.08L91.47,33V30.48h1.08v4.11h-1L90.17,32Z"/>
<path class="cls-1" d="M97.24,32.52c0,1.17-.43,2.08-1.73,2.08s-1.7-.7-1.7-2,.47-2.12,1.7-2.12S97.24,31,97.24,32.52Zm-1.06,0c0-1-.08-1.27-.67-1.27s-.63.32-.63,1.31c0,.82.05,1.23.63,1.23S96.18,33.45,96.18,32.52Z"/>
</svg>