<svg xmlns="http://www.w3.org/2000/svg" viewBox="0 0 99.67 38.81">
<defs><style>.cls-1{fill:#f9dc3e;}</style></defs>
<path d="M68.35,3.44l0-.21-.34,0,0,.21ZM70.68,9v.12l.24,0A.84.84,0,0,1,71,8.8l0-.22c-.1,0-.2.16-.3.46Zm-9.08,7a10.81,10.81,0,0,0-1.85-2.33c0-.25.4-.63,1.26-1.12l2.46-2.14a6.21,6.21,0,0,0,1-3.41l0-.36c-.1-1.09-.88-2-2.38-2.63q-1.32-.9-4.77-1a28,28,0,0,0-7.43,2A31.24,31.24,0,0,1,47,7v.18A.59.59,0,0,0,47.26,7a.15.15,0,0,1,.2.16l.19-.1h.09v.08a10,10,0,0,1-2,1.55l.1.19h-.09l-.22-.08c0,.06-.09.11-.27.12V9l.21.27a.76.76,0,0,1-.31-.07,1.47,1.47,0,0,0-.91.5l.12-.55A43.54,43.54,0,0,0,45.31,4l0-.09a3.81,3.81,0,0,1-.89-.83,2.17,2.17,0,0,0,0-.39l0-.08-.09,0q-1.45,2.18-5.62,7.46a30.58,30.58,0,0,0-3.26,4.18c-.86.89-1.28,1.42-1.23,1.61-.23.14-.33.29-.29.45a.09.09,0,0,1-.13-.07,2.47,2.47,0,0,1-1.64,1.15l-.76.17a.19.19,0,0,0-.15.23l0,.09.29-.06,0,.08-.65.25-1.14.26-.61,0c-.09.09.48,0,.26,0l-.75.18c-.46.1-.71.07-.75-.12l-.09,0a.65.65,0,0,1,0,.19l-.05-.18-.6.14a15,15,0,0,0-2.44-3c0-.34.53-.83,1.67-1.47l3.22-2.83A8.29,8.29,0,0,0,30.91,7l-.05-.48C30.74,5,29.69,3.87,27.73,3Q26,1.8,21.46,1.7a37.33,37.33,0,0,0-9.79,2.66A39.48,39.48,0,0,1,7.89,6.74l0,.25a1,1,0,0,0,.38-.14c.16,0,.25.05.26.2l.25-.14h.13V7A15.26,15.26,0,0,1,6.29,9.08l.14.22H6.31L6,9.21c0,.07-.12.12-.38.15l0,.13L6,9.81a1,1,0,0,1-.4-.08A2.48,2.48,0,0,0,3.89,11L4,11.2c.47-.45.75-.67.84-.67l0,.36a1.12,1.12,0,0,0-.38.14l.3.46A9.83,9.83,0,0,1,6.74,9.88c.35.09.53.2.54.31l.26,0a20.58,20.58,0,0,1,5.64-3l0,.25c-.35.51-.59.78-.71.79a.75.75,0,0,0,.18.46c0,.32-.81,2.46-2.53,6.4A171.18,171.18,0,0,1,.33,35.38a.85.85,0,0,0,.16.35,3.34,3.34,0,0,0,1.24-.47l.14,0,0,.25.24,0,.26-.14c0,.08.08.11.25.1l0,.25a2.11,2.11,0,0,1-.41,1.12,5.83,5.83,0,0,0-.85,1.9v.11l.24,0a15.3,15.3,0,0,0,2.41-3.48,38.55,38.55,0,0,0,7.08-2.67,6.64,6.64,0,0,0,3.75-1.29v-.13l-.62.18-.14,0,0-.14a5.57,5.57,0,0,0,2.51-.81c2.34-1.81,4.12-3.09,5.32-3.85a14,14,0,0,0,4.8-5.3l.41-.09a4.92,4.92,0,0,0,.59,0c0-.06,0-.1.08-.12.55-.05.29,0,.64,0l.93-.21c-.06,0-.08,0-.07.1l.14-.09h-.07l.15,0-.07,0a.81.81,0,0,0,.34,0l.06.27-4.21,6.71L24.71,29l-.46,1.53.09,0,.46-.19-.15.59.05.18.12.16c-.06,0-.08.05-.07.11l0,.1.19,0c.28-.25.4-.47.35-.67a1.85,1.85,0,0,0,.61.05l0,.09c-.19.05-.28.19-.3.44l0,.1.1,0c1.53-1.67,5.28-7.39,8.29-11.27q-.14-.63,4.71-1.75l.11,0A9.84,9.84,0,0,1,38.14,22a9.81,9.81,0,0,0-.56,1.93,14.15,14.15,0,0,0-.73,2.55L35.7,30.24A34.79,34.79,0,0,0,34,36.33a.64.64,0,0,1,.32,0l.16-.14c0,.06.06.08.13.07L34.53,36l.5,0c.15,0,.27-.22.38-.56,0-.5.08-.78.31-.84a8.25,8.25,0,0,1,.56-1.83,8.22,8.22,0,0,1,.64-2.05c.44-1.56.75-2.37,1-2.42l0,.19-.31.82a39.4,39.4,0,0,1-1.68,5.81l.16.71.1,0q2.06-4.41,5.91-17.49a2.32,2.32,0,0,1,1.1-1.78l-.15-.15,0-.08a1,1,0,0,0,.62-.35c0-.07-.27-.16-.77-.29l1.28-5.49a2.11,2.11,0,0,1,.49-.39l0,.28a.73.73,0,0,0-.28.13l.24.34A8,8,0,0,1,46.07,9.3c.27.07.4.16.41.25l.2,0A15.5,15.5,0,0,1,51,7.24v.18c-.26.39-.43.59-.53.6a.81.81,0,0,0,.12.35,33.59,33.59,0,0,1-1.91,4.86,133.46,133.46,0,0,1-7.45,15.45.63.63,0,0,0,.13.27,2.34,2.34,0,0,0,.93-.36h.09l0,.19.2,0,.19-.09c0,.05.07.07.2.06v.2a1.6,1.6,0,0,1-.32.84A4.39,4.39,0,0,0,42,31.2v.09h.19A11.46,11.46,0,0,0,44,28.63a30,30,0,0,0,5.37-2,5,5,0,0,0,2.86-1v-.09l-.48.14h-.1v-.1a4.27,4.27,0,0,0,1.9-.61c1.78-1.37,3.13-2.35,4-2.92q4.26-3.11,4-6Zm-.48.13.06.74c-.08.19-.18.28-.27.29L60.8,16c.21.08.31.15.32.24Zm-55.74-6H5.26l0-.22L5.74,10v.12a1,1,0,0,0-.37.15ZM2.9,35a1.62,1.62,0,0,0-.79-.16l0-.36c0-.14.07-.24.25-.27s.25.1.27.33a5.18,5.18,0,0,1,.71-.79l.27.11C3.49,34.63,3.26,35,2.9,35ZM29.41,7.3c-.13,0-.38-.37-.74-1.15l0-.22c.23,0,.48.36.74,1.14Zm-.36-2.74L29,4.8l-3.6-1.5C27.75,3.38,29,3.8,29.05,4.56ZM13.85,17.61l-.5,0,0-.23.51,0Zm-.41-7.84h.13l0,.36c-.12,0-.28.19-.47.52l0-.25c.23-.27.35-.47.33-.62Zm-1.07,2.52.05.47h-.13l0-.48Zm-.56.89.25,0c0,.4-.14.61-.33.63H11.6A1,1,0,0,0,11.81,13.18Zm-.42,1.25h.14v.12l-.23.38-.24,0v-.12c.25,0,.36-.14.33-.39ZM11,15.56l-.07.6h-.13l0-.59ZM6.85,27.3c-.16.83-.34,1.25-.52,1.26v-.12a1.36,1.36,0,0,1,.53-1.14Zm-.76,1.64v.12a.22.22,0,0,1-.22.27v-.12C5.86,29.07,5.93,29,6.09,28.94Zm-.22,3.41.39,0v.14a1,1,0,0,0-.37.14l-.25,0c0-.13.07-.22.22-.27ZM16.77,29A20.41,20.41,0,0,0,13,31.14c-2.33.81-3.48,1.31-3.46,1.51a37.87,37.87,0,0,0-4.09,1.8,1.48,1.48,0,0,1-.67-.18,1.1,1.1,0,0,1,.56-1,2.17,2.17,0,0,1,1,.16,10.28,10.28,0,0,1,2-.65l0-.25-.77.07a10.3,10.3,0,0,1,2.22-1l.38,0v.12c-.65.06-1,.25-1.1.59a.21.21,0,0,0,.27.21c.49-.31.73-.49.73-.54.93-.18,3.52-1.54,7.75-4.06l0,.23c0,.11-.35.42-1.08.95Zm-6.49,2.13a2.55,2.55,0,0,0,1.59-.73c.17,0,.27.05.28.2a5.47,5.47,0,0,0-1.73.77h-.13v-.25Zm10.47-8L17.5,25.65A34.44,34.44,0,0,1,13.61,28q-5.76,3.16-7.16,3.29H6.31c.12-.43,1.82-3.93,5.14-10.51a27.74,27.74,0,0,0,6.88-2l.76-.06a4.43,4.43,0,0,1,3.55.9l.05.48c-.59,1.69-1.24,2.68-1.94,3Zm-6.34-3.57.52-.05v.12l-.53,0Zm7.33-1.25.39,0c.35.17.53.31.55.44v.12A1.07,1.07,0,0,1,21.74,18.26Zm1-5.91A14.52,14.52,0,0,1,20,14.42a36.16,36.16,0,0,0-5.59,2.18,1,1,0,0,0-.51-.09l0-.23a3,3,0,0,1,.62-1.75c.25-1.32.52-2.08.83-2.27l2.68-6c0-.38.55-.66,1.72-.86l.39,0,0,.35c1.15-.18,1.87-.28,2.15-.3,2.14-.19,3.25.25,3.34,1.28l.24,0L25.83,6l.26,0a1.65,1.65,0,0,1,1,1.26,2,2,0,0,1-.54,1.26c-.16,0-.26-.11-.27-.34L26,8.2,26,8.94c-1.08,1.62-1.87,2.45-2.35,2.49C23.16,12,22.89,12.34,22.78,12.35Zm1.65,4.23a1,1,0,0,0-.53-.2l0-.36.24,0,.54.31c0,.17,0,.26-.22.27Zm1.71,2c.23.09.37.2.4.29l-.11,0h-.07l-.18.14Zm.16,1,0-.09.31-.07,0,.09Zm.74.84c.32-.06.48-.08,1.06-.21l0,.1L27,20.6A.89.89,0,0,0,27,20.46Zm1.09.46a5.09,5.09,0,0,0-1.12.15L27,21l.94-.3.45-.11,0,.18C28.22,20.79,28.37,20.79,28.13,20.92Zm1-.24a.2.2,0,0,1-.25-.14l.28-.07a.18.18,0,0,1,.24.15l-.27.06Zm2.69-2.9,0-.09.46-.11.05.17ZM34.7,35.44a.65.65,0,0,0,0-.3l.1,0c.13,0,.2,0,.23.13l0,.1-.38.09Zm2-16.9-.21,0a7.45,7.45,0,0,1-.84.28l-.19,0a.19.19,0,0,1-.24-.13l1.34-.31.45-.21.14.17a1,1,0,0,0-.45.19Zm1-.33,0-.09A.55.55,0,0,0,38,18l1-.22,0,.1a7.31,7.31,0,0,0-1.21.38Zm.15-1.93a.72.72,0,0,0-.26.16c0-.07-.15-.07-.4,0,0-.18.66-.44,2.13-.78l.2,0,0,.17-1.72.5Zm2.58-2.79c-.11,1.17-.52,1.84-1.25,2l0-.09-.65.25-.28.07a.77.77,0,0,1-.4,0l-.06-.26a40,40,0,0,1,2.81-3.88l.22,0a4,4,0,0,1-.37,1.88ZM45,9.59H45l0-.19.38,0v.09L45,9.59ZM43.16,28.44a1.27,1.27,0,0,0-.59-.13l0-.28c0-.1.05-.16.17-.2s.2.08.22.27a2.68,2.68,0,0,1,.53-.61l.2.08q-.12.84-.51.87Zm20.12-21c-.09,0-.28-.29-.56-.88l0-.19c.18,0,.38.28.57.86v.21ZM63,5.29l-.09.19L60.21,4.34C62,4.39,63,4.71,63,5.29ZM51.47,15.2l-.38,0,0-.19.38,0,0,.18Zm-.32-5.95h.1l0,.28c-.1,0-.22.14-.36.4V9.73a.8.8,0,0,0,.24-.48Zm-.8,1.91,0,.36h-.1l0-.36Zm-.44.68h.2c0,.31-.11.47-.25.48h-.1a1,1,0,0,0,.15-.48Zm-.3.95h.08v.09l-.17.3h-.19v-.09c.2,0,.29-.12.28-.3Zm-.31.85-.07.47h-.09l0-.47Zm-3.15,8.93c-.12.62-.25.93-.39.95v-.08A1.06,1.06,0,0,1,46.15,22.57Zm-.58,1.24v.08c0,.14,0,.21-.18.22V24c0-.09.05-.16.17-.2Zm-.16,2.59.29,0v.1a.71.71,0,0,0-.29.11h-.19c0-.1.05-.17.18-.2Zm8.27-2.55a16.92,16.92,0,0,0-2.89,1.63c-1.77.61-2.64,1-2.63,1.15A29.46,29.46,0,0,0,45.08,28a1,1,0,0,1-.51-.14.78.78,0,0,1,.43-.76,1.62,1.62,0,0,1,.79.12,8.53,8.53,0,0,1,1.52-.5l0-.18-.6,0a7.74,7.74,0,0,1,1.69-.79l.3,0v.08q-.75.06-.84.45a.16.16,0,0,0,.2.17c.37-.25.55-.39.55-.43q1-.2,5.88-3.09v.19c0,.08-.26.31-.81.72Zm-4.94,1.62A2,2,0,0,0,50,24.92a.15.15,0,0,1,.2.16,4.8,4.8,0,0,0-1.31.56h-.1l0-.18Zm8-6.12-2.45,2a24.29,24.29,0,0,1-3,1.82q-4.38,2.41-5.44,2.5h-.11c.09-.34,1.4-3,3.91-8a21.74,21.74,0,0,0,5.22-1.56l.6-.06a3.32,3.32,0,0,1,2.68.7l0,.36c-.45,1.27-.93,2-1.46,2.24Zm-4.82-2.71.39,0v.09l-.38,0Zm5.58-1,.29,0c.27.13.41.25.42.35v.08A.82.82,0,0,1,57.47,15.69Zm.77-4.48a11.52,11.52,0,0,1-2.1,1.58,27.62,27.62,0,0,0-4.24,1.64.84.84,0,0,0-.39,0v-.19A2.29,2.29,0,0,1,52,12.86c.19-1,.41-1.58.63-1.72l2-4.59c0-.27.41-.49,1.3-.66l.29,0,0,.28,1.64-.25c1.62-.14,2.46.19,2.53,1h.19l0-.44.19,0a1.23,1.23,0,0,1,.76.94,1.52,1.52,0,0,1-.39,1c-.13,0-.2-.07-.22-.26h-.19l-.06.55c-.82,1.25-1.41,1.89-1.79,1.92-.33.45-.53.67-.63.68Zm.86,3.06,0-.28h.19l.41.25c0,.12,0,.18-.17.2a.86.86,0,0,0-.41-.16ZM24.84,32.15l-.2.05-.16.14a.17.17,0,0,0,.23.13c.13,0,.18-.1.15-.22Zm-.73-1.45,0,.1c.12,0,.18-.1.15-.22l0-.1a.17.17,0,0,0-.14.22Zm5.18-12.33.22-.05,0-.19-.22.05,0,.19ZM96.08,24a12.61,12.61,0,0,1-3,.45l0,.19.21,0h.11l0,0,.24-.09c2.21-.25,2.47-.16,2.45-.41Zm-12,1.6,0,.18h0l0-.18Zm-1.38-4.85-.2-.07a4.13,4.13,0,0,0-.24.77v.08C82.38,21.5,82.52,21.24,82.65,20.73ZM96.54,24v.18l.33.06,0-.19L96.54,24ZM81.31,25.81l-.5-.06-.09.19V26l3-.25,0-.19-2.38.21ZM80,19.28v-.1h-.11l-.18.12.1.17c.14,0,.21-.08.19-.2Zm18,3.31h.14c.08,0,.12-.08.11-.2l-.08-.17A2.28,2.28,0,0,0,97,22.5v-.09l-.61.06c0-.19-.07-.28-.15-.28l-.32,0c-.36,0-.54,0-.72.16,0-.07,0-.1-.07-.1l-.35,0-.21.12c0-.07,0-.1-.07-.1l-.12.11v-.09l-.49,0h-.12v.18l.25.07.24,0a.36.36,0,0,0,.27.06l.21-.1v.08a14.29,14.29,0,0,1-1.95.37c-.09-.06-.15-.09-.2-.08h0c-.09,0-.14-.06-.15-.16l.41-.05a2.85,2.85,0,0,0,.28.07c.34-.16.35-.23.53-.24l0-.18a11.7,11.7,0,0,1-2.1.19h-.06l0-.18a7,7,0,0,0,1.84-.27c0,.06,0,.09.07.09a.39.39,0,0,1,.25-.12h.13a6.75,6.75,0,0,0,2.12-.28v.08l.21-.1.19,0c0-.18.26-.21.36-.22v-.2c-2.23.45-2.81.33-3.43.5v-.08a2.66,2.66,0,0,1-.76.07.37.37,0,0,0-.18.12c0-.07,0-.1-.07-.1h0l-1.88.31c0-.05,0-.08-.08-.08a8.89,8.89,0,0,1-2,.36.6.6,0,0,0-.24.11c0-.05,0-.08-.11-.08l-.8.07-.54.13c0-.05,0-.08-.1-.07a5,5,0,0,1-.78.15h0c-.13,0,.07,0,0-.08l-.16.09c-.24,0-.11,0-.92,0-1.42.18-1.27.2-1.42.21l-.53,0a.08.08,0,0,1-.09.09c-.6-.08-.91-.18-.92-.29.08-.57.22-.86.42-.88H82L81.9,22H82c.19-.11.28-.2.27-.29v-.2l-.19,0,0-.19a.74.74,0,0,1,.06-.37l.44-.7v.19l.21,0,0-.18-.12-.17a.75.75,0,0,1,.37-.21v-.1l-.28,0,0-.28a7.63,7.63,0,0,0,.81-2l.2.08c.13,0,.19-.08.18-.21h-.19v-.08a.75.75,0,0,1,.07-.39,1.23,1.23,0,0,0,.42-1s.08,0,.09.09a1.76,1.76,0,0,0,.6-1.19,36.18,36.18,0,0,0,2-4.94A28.54,28.54,0,0,0,88.6,4l-.19,0a.69.69,0,0,1-.08.37A.7.7,0,0,0,88,4.36V4.28a2.24,2.24,0,0,1,.47-1.36h.09l.16.64.2,0a5.12,5.12,0,0,1,.14-.75c0-.1-.08-.16-.23-.17l-.18.12a10.08,10.08,0,0,1,0-1h-.1a.75.75,0,0,1-.25-.41l-1,.11a1.12,1.12,0,0,0-.12-.33c0-.09.23-.19.71-.28l.22.08.19-.12a.1.1,0,0,0,.12.09l.2-.12c0,.07,0,.09.12.09h.09V.6c-.15,0-.54,0-1.16,0l-.19.13V.6L79,1.3c-.08,0-.43,0-1,0,0,.08-.07.12-.21.14l-.22-.1-.72.19a5.87,5.87,0,0,1-.85,0,.7.7,0,0,1-.41.15c-.09,0,1.06,0,2.11-.13a.9.9,0,0,1-.51.16.65.65,0,0,1-.42-.07A12.83,12.83,0,0,1,75.2,2L75,1.88l-3.45.53a.86.86,0,0,0-.46-.08,5.83,5.83,0,0,0-.92.2l-1.67.69.13.21A1,1,0,0,0,69,3.3l.59.05-.08.55a1.49,1.49,0,0,0-1,1.06c-.81.36-1.22.62-1.22.77v.1h.12l.22-.12.26.31,0,.43q0,.19-4.12,8.68c-2.38,5.45-3.63,8.43-3.75,9-.82.22-1.29.55-1.43,1,0,.14.26.23.73.27l0,.21-.21.36,0,.42c0,.22.61.39,1.79.51,0-.07,0-.12.11-.12a6.66,6.66,0,0,1-.23,1.54H61a2.71,2.71,0,0,0,.69-1.37h.1c.12,0,.25.12.39.41a18.1,18.1,0,0,0-1.54,3.52l.12.2h.13a26,26,0,0,1,2-4.55q2.13-.18,7.37-.75l.22-.13c0,.08,0,.11.13.1l.23,0,.22-.13a.1.1,0,0,0,.13.1l2.64-.23c.7-.05,1-.27,1-.63,0-.09.4-.2,1.23-.32a.94.94,0,0,1,.36.06c0-.06.41-.13,1.25-.2,0-.44.17-.68.42-.7l0-.21a3.76,3.76,0,0,0-.81.18,4.38,4.38,0,0,1-1-.13.93.93,0,0,1-.34.14l-1.84.06-.22.11c0-.06,0-.09-.13-.09h-.1l-.24.12c0-.07-.2-.12-.58-.17l-.24.14-.45,0v-.12q3.56-.39,3.51-1c.16,0,.24.05.25.21l.69-.18,0-.21-5.67.15c0,.08,0,.12-.11.13l-.7-.06a.89.89,0,0,0-.44.15l-.26-.09a7.86,7.86,0,0,0-1.59.26,9.85,9.85,0,0,0-1.62,0l-1.28.11-.58-.07c0-.37.69-2.22,2.2-5.53a4.88,4.88,0,0,1,1.21-2.09,1.15,1.15,0,0,1,.36.09l.91-.31.46.08a10.81,10.81,0,0,0,2.72-.67,1.17,1.17,0,0,1,.59,0l.7-.16,2.06-.18a13.87,13.87,0,0,0,2.85-.58l0-.22q-.57.06-.6-.18c0-.29-.3-.4-.84-.36l0-.21.57-.17L79,12.61l0-.21s-.36,0-.92,0l0-.22.58-.06c.15,0,.22-.08.2-.23q-1.16,0-1.17-.12-8.09.4-8.1.15a1,1,0,0,0-.34.15L69,11.81q2.14-4.55,2.51-4.58a1.26,1.26,0,0,1-.18.57v.09l.23,0c.57-1.36,1.05-2,1.44-2.08,1.7-.15-.23-.26,3.39-.83a.64.64,0,0,0,.32.09q2.13-.43,5.94-.9V3.94l-1.36.12V3.85a.75.75,0,0,0,.4-.15v.11A.73.73,0,0,0,82,3.67a1,1,0,0,1,.54.06,8.67,8.67,0,0,1,1.13-.23l.85-.08c.2-.13.3-.25.29-.36V3a2.89,2.89,0,0,1-.75-.05c0-.12,0-.2.19-.23l1.58-.15.72-.18c0,.08,0,.11.1.11A.77.77,0,0,0,87,2.32h.12a5.53,5.53,0,0,0-.32.86l-.2,0a.94.94,0,0,0-.12-.38h-.1c-1.92,5.33-2.77,7.81-4.54,11.9-.32,1-.59,1.63-.83,1.76,0,.11.08.17.21.16a2.65,2.65,0,0,1-.36,1.52,15.06,15.06,0,0,1-1.65,3.88l.19,1.11c0,.12,0,.19-.18.2l-.19,0c0-.31-.14-.46-.34-.44h-.1A4.53,4.53,0,0,0,78,24.32h.19a.65.65,0,0,0,.36-.6l.38,0,.22.08a1.11,1.11,0,0,0-.24.67l.1.18-.25.59v.1a1.17,1.17,0,0,1,.72.2,1.19,1.19,0,0,0,.58-.23c.22,0,1,0,2.47,0l.71-.25A14.06,14.06,0,0,0,85,24.93l.31,0,.16-.11v.1a4.54,4.54,0,0,1,1.46.06V25l-.43,0v.18a.6.6,0,0,0,.35-.13c.11,0,.18.05.18.18a2.61,2.61,0,0,0-.59.14l-.19-.07a2.18,2.18,0,0,1-.45.12l-.3-.06a.07.07,0,0,1-.07.09.16.16,0,0,0,.18.17l.31,0,1.61-.14.62-.13c0,.05,0,.08.08.07l.29-.11.55-.05c.43,0,.42-.06,1.35-.21,0-.06,0-.08.06-.09v.08a12.69,12.69,0,0,0,1.84-.35l0,0c.37-.08.16-.06.26-.14s0,.1.07.1l.26,0v-.2h-.68v0a2.85,2.85,0,0,1-.6,0l-1.35.07v-.09l.75-.1.27,0,.16-.11v.1a25.12,25.12,0,0,0,6.33-.87c.27,0,.25-.24.42-.7a.4.4,0,0,1-.26-.06,7.63,7.63,0,0,1-1.4.21c-.07,0-.12,0-.14-.17v-.08l.75,0A1.91,1.91,0,0,0,98,22.5c0,.06-.15.1-.06.09Zm-36.24.58-.35,0a6.78,6.78,0,0,1,.55-1.57l.23,0A5.83,5.83,0,0,1,61.71,23.17Zm.42-1.68V21.4c0-.12.07-.2.23-.24v.1C62.36,21.4,62.29,21.48,62.13,21.49Zm4.6,3.56v.1l-.57.05v-.1l.58-.05ZM66,25c0,.12-.17.25-.56.38l-.7-.05-.23,0,0-.21L66,25ZM70.69,3.58l-.35,0V3.49c0-.12.06-.2.21-.24h.13l.23.09Q70.91,3.55,70.69,3.58Zm5.26-1h.11l0,.21-.32,0C75.75,2.66,75.81,2.58,76,2.55ZM74.63,3,74.1,3V2.86a6.18,6.18,0,0,0,1.33-.25q0,.12.21.09l0,.21-.21,0A.72.72,0,0,1,75,2.86a.85.85,0,0,1-.4.15Zm.65,1.91v-.1l.85-.08v.1Zm.91-.74V4.06l.41,0v.11Zm.09-1.44h-.11l.1-.23.94-.09v.12A5.76,5.76,0,0,0,76.28,2.74Zm.48,2V4.56l.41,0c.14,0,.21.05.22.2l-.62,0Zm2.5-3.4-.53.15h-.1a4.54,4.54,0,0,1-1,0c.69,0,1.34-.09,1.59-.13Zm-.57,2.35v.1L78,3.89v-.1Zm1.19.57c0-.09-.15-.15-.43-.18l-.73.21-.56,0C78,4.25,78,4.2,78,4.15l.65,0L80.07,4l.74,0V4.1A4.32,4.32,0,0,0,79.88,4.29Zm7.5-1.93h.17a2.89,2.89,0,0,1,.88-.59,5.19,5.19,0,0,1-1.25,2.59l-.41-.25a13.39,13.39,0,0,0,.61-1.75ZM86.12,4.53h.1c-.14.26-.27.4-.37.41l0-.28A.63.63,0,0,0,86.12,4.53Zm-.82,2c.2-.8.39-1.25.57-1.36v.09c-.1.74-.26,1.13-.48,1.16l0,.46a1,1,0,0,0-.25.59h-.1L85,6.79c.12,0,.21-.12.28-.31ZM85,7.54a2.39,2.39,0,0,1-.21.76h-.1l0-.28c.14-.32.26-.49.34-.49ZM79,24.78V24.7l.2,0,0,.28C79.15,25,79.07,24.91,79,24.78Zm8.49.22c0-.07,0-.1-.1-.09L87,25v-.09h0l1.14-.1v.1C87.79,24.87,87.6,24.92,87.53,25ZM87,24.76c.05,0,0,0,0,.06S86.91,24.79,87,24.76ZM87,23.44l-.63,0v-.1l.58-.05.5-.12c0,.06,0,.08.1.07.6-.1.54-.13.82-.15.1,0,.16.05.17.16L87,23.44Zm2.22-.19a2.57,2.57,0,0,0-.63-.05v-.08l.57-.05v.08c-.06,0,.15,0,.06.1Zm0-.11v-.08l.31,0v.08Zm.69-.06V23a.48.48,0,0,0,.22-.11.21.21,0,0,1,.25.2Zm.87-.11v-.09l.38,0v.09Zm.52,0c0-.11,0-.18.14-.19l.12.16a.07.07,0,0,1,.06-.09l.1.18-.42-.06Zm-5.55,2.4,0-.18h-.06l0,.19ZM98.74,22c.06,0,.09-.07,0-.1s.07.1-.07.11v.06L98.7,22l-.08.07h0l-.15.2.31-.11h0V22Zm.54.42h-.06v.18l.44,0c0-.11-.3-.15-.39-.15Zm-.67-.32h0v0Z"/><path class="cls-1" d="M70.35,8.45v.12l.24,0a.85.85,0,0,1,.07-.34l0-.22c-.1,0-.21.17-.3.46ZM68,2.86l0-.22-.35,0,0,.22ZM61.27,15.49a11.09,11.09,0,0,0-1.85-2.33c0-.25.4-.62,1.26-1.12L63.14,9.9a6.21,6.21,0,0,0,1-3.41l0-.36C64,5,63.19,4.17,61.7,3.5q-1.32-.9-4.77-1a28,28,0,0,0-7.43,2,30.16,30.16,0,0,1-2.88,1.81l0,.18a.59.59,0,0,0,.29-.12.15.15,0,0,1,.2.16l.19-.09h.08v.08a10,10,0,0,1-2,1.55l.1.19h-.09l-.22-.08c0,.07-.09.11-.27.12v.09l.21.26a.76.76,0,0,1-.31-.07,1.47,1.47,0,0,0-.91.5l.12-.55A43.54,43.54,0,0,0,45,3.44l0-.09a3.81,3.81,0,0,1-.89-.83,2.17,2.17,0,0,0,0-.39l0-.08-.09,0q-1.45,2.19-5.62,7.46a31.31,31.31,0,0,0-3.26,4.18c-.87.89-1.28,1.42-1.23,1.61-.23.15-.33.29-.29.45a.09.09,0,0,1-.13-.07,2.47,2.47,0,0,1-1.64,1.15L31,17c-.11,0-.16.09-.15.22l0,.09.29-.06,0,.08-.65.25-1.15.26-.6,0c-.09.09.48,0,.26,0l-.75.18c-.46.1-.71.07-.75-.12l-.09,0a.72.72,0,0,1,0,.2l0-.19-.6.14a15.63,15.63,0,0,0-2.45-3c0-.33.53-.83,1.68-1.47l3.22-2.83a8.29,8.29,0,0,0,1.29-4.46l0-.48c-.12-1.44-1.17-2.61-3.13-3.5-1.17-.79-3.26-1.21-6.27-1.28a37.73,37.73,0,0,0-9.79,2.66A37.6,37.6,0,0,1,7.56,6.15l0,.25A.85.85,0,0,0,8,6.26a.21.21,0,0,1,.26.2l.25-.14H8.6v.11A13.88,13.88,0,0,1,6,8.49l.14.22H6l-.28-.1c0,.07-.11.12-.37.15V8.9l.3.32a1,1,0,0,1-.4-.08,2.51,2.51,0,0,0-1.68,1.25l.14.22a3.27,3.27,0,0,1,.83-.67l0,.36a1.27,1.27,0,0,0-.37.15l.3.45A10.19,10.19,0,0,1,6.41,9.29c.35.09.53.2.54.32l.26,0a20.58,20.58,0,0,1,5.64-3l0,.25c-.34.51-.58.78-.7.79a.8.8,0,0,0,.18.47c0,.31-.82,2.45-2.53,6.39A171.18,171.18,0,0,1,0,34.79a1,1,0,0,0,.15.35,3.33,3.33,0,0,0,1.25-.47h.14l0,.25.24,0,.25-.14c0,.08.09.11.26.1l0,.25a2.11,2.11,0,0,1-.41,1.12,5.83,5.83,0,0,0-.85,1.9v.12l.25,0a15.09,15.09,0,0,0,2.41-3.48,37.83,37.83,0,0,0,7.08-2.67,6.59,6.59,0,0,0,3.75-1.29v-.13l-.62.18-.14,0,0-.13a5.68,5.68,0,0,0,2.51-.82c2.34-1.81,4.12-3.09,5.32-3.85a14,14,0,0,0,4.8-5.29l.41-.1a3.42,3.42,0,0,0,.59,0c0-.06,0-.1.08-.11.55-.06.29,0,.64,0l.93-.21.15,0-.07,0a1,1,0,0,0,.34,0l.06.28-4.22,6.7-.93,1.17-.46,1.53.09,0,.46-.19-.15.6,0,.17.13.16c-.06,0-.08.05-.07.11l0,.1.19,0c.28-.25.39-.47.35-.67a1.56,1.56,0,0,0,.6.05l0,.09c-.19.05-.28.19-.3.45l0,.09.11,0C27,29.1,30.73,23.38,33.74,19.5c-.09-.42,1.47-1,4.71-1.75l.11,0a10.3,10.3,0,0,1-.75,3.68,9.81,9.81,0,0,0-.56,1.93,14.4,14.4,0,0,0-.73,2.55l-1.15,3.76a34.79,34.79,0,0,0-1.71,6.09.64.64,0,0,1,.32,0l.16-.14c0,.06.06.09.13.07l-.07-.27.5,0c.15,0,.27-.22.38-.56,0-.5.08-.78.3-.83A7.88,7.88,0,0,1,36,32.18a8.22,8.22,0,0,1,.64-2.05c.44-1.56.75-2.36,1-2.42l0,.2-.31.81a42,42,0,0,1-1.68,5.81l.16.71.1,0q2.05-4.41,5.91-17.48a2.33,2.33,0,0,1,1.1-1.79l-.15-.15,0-.08a1,1,0,0,0,.62-.35c0-.06-.27-.16-.77-.29l1.28-5.49a2.11,2.11,0,0,1,.49-.39l0,.28a.73.73,0,0,0-.28.13l.24.34a8,8,0,0,1,1.44-1.23c.27.07.4.16.41.25l.19,0a15.69,15.69,0,0,1,4.3-2.29v.18c-.26.39-.43.59-.53.6a.81.81,0,0,0,.12.35,33.93,33.93,0,0,1-1.91,4.87,134,134,0,0,1-7.45,15.44.58.58,0,0,0,.13.27,2.34,2.34,0,0,0,.93-.36H42l0,.19.2,0,.19-.09c0,.05.07.07.19.06l0,.2a1.7,1.7,0,0,1-.32.84,4.39,4.39,0,0,0-.67,1.44v.09h.19A11.4,11.4,0,0,0,43.69,28a29.06,29.06,0,0,0,5.38-2,5,5,0,0,0,2.85-1v-.09l-.48.14h-.1V25a4.27,4.27,0,0,0,1.9-.61C55,23,56.36,22,57.27,21.46c2.84-2.07,4.16-4.06,4-6Zm-.48.13.06.74c-.09.19-.18.28-.27.29l-.11-1.27c.21.08.31.15.32.24Zm-55.74-6H4.92l0-.23.51-.05v.12a1,1,0,0,0-.37.15ZM2.57,34.44a1.64,1.64,0,0,0-.79-.16l0-.36c0-.14.07-.24.24-.27s.26.1.28.34a5.32,5.32,0,0,1,.7-.8l.28.11C3.16,34,2.93,34.41,2.57,34.44ZM29.08,6.71c-.13,0-.38-.37-.74-1.15l0-.22c.23,0,.48.36.73,1.15ZM28.72,4l-.1.24L25,2.71C27.42,2.79,28.66,3.21,28.72,4ZM13.52,17l-.51,0,0-.23.51,0Zm-.41-7.84h.12l0,.36c-.11,0-.27.19-.46.53l0-.26c.23-.27.34-.47.33-.62ZM12,11.7l.05.48H12l0-.48Zm-.56.89.25,0c0,.4-.14.61-.34.63h-.12A1.17,1.17,0,0,0,11.48,12.59Zm-.42,1.26.14,0V14l-.23.38-.24,0v-.11c.25,0,.36-.15.33-.39ZM10.65,15l-.07.61h-.13l0-.59ZM6.52,26.71C6.36,27.54,6.18,28,6,28v-.12a1.34,1.34,0,0,1,.53-1.14Zm-.76,1.64v.12a.22.22,0,0,1-.22.27v-.12C5.53,28.48,5.6,28.39,5.76,28.35Zm-.22,3.41.39,0v.13a1,1,0,0,0-.38.15l-.24,0c0-.13.07-.22.22-.27Zm10.9-3.36a19.61,19.61,0,0,0-3.79,2.16c-2.33.81-3.49,1.31-3.46,1.5a40.07,40.07,0,0,0-4.09,1.8,1.35,1.35,0,0,1-.67-.18,1.09,1.09,0,0,1,.56-1,2.18,2.18,0,0,1,1,.17,10.13,10.13,0,0,1,2-.66l0-.25L7.24,32a10.3,10.3,0,0,1,2.22-1l.38,0V31c-.66.06-1,.25-1.1.6a.21.21,0,0,0,.27.2c.49-.31.73-.49.73-.54q1.39-.27,7.75-4.06l0,.23C17.53,27.56,17.17,27.87,16.44,28.4Zm-6.5,2.13a2.51,2.51,0,0,0,1.59-.73c.18,0,.28.05.28.2a5.67,5.67,0,0,0-1.73.77H10l0-.25Zm10.48-8-3.25,2.57a32.36,32.36,0,0,1-3.9,2.4q-5.76,3.16-7.16,3.29H6q.18-.65,5.14-10.51a28.07,28.07,0,0,0,6.88-2l.77-.07a4.38,4.38,0,0,1,3.54.91l.05.48c-.58,1.68-1.23,2.67-1.93,3Zm-6.35-3.57.53-.05V19l-.52.05Zm7.34-1.25.39,0c.35.17.53.31.55.45v.11A1.07,1.07,0,0,1,21.41,17.67Zm1-5.91a14.88,14.88,0,0,1-2.78,2.07A37.39,37.39,0,0,0,14.08,16a1.13,1.13,0,0,0-.51-.09l0-.23a3.06,3.06,0,0,1,.63-1.75c.25-1.32.52-2.08.82-2.27l2.69-6c0-.37.55-.66,1.72-.86l.39,0,0,.35C21,4.9,21.69,4.8,22,4.78c2.14-.19,3.25.25,3.34,1.29l.24,0-.05-.61.26,0a1.67,1.67,0,0,1,1,1.26,2,2,0,0,1-.54,1.26c-.16,0-.26-.11-.28-.34l-.26,0-.06.74c-1.08,1.62-1.87,2.45-2.35,2.49-.45.61-.72.92-.83.92ZM24.1,16a.93.93,0,0,0-.53-.21l0-.36.24,0,.54.31a.22.22,0,0,1-.22.28Zm1.71,2c.23.1.37.2.4.29l-.12,0h0l-.07,0-.18.14,0-.49ZM26,19l0-.1.31-.07,0,.09L26,19Zm.74.83c.32-.05.47-.08,1.06-.21l0,.1L26.68,20a.89.89,0,0,0,0-.14Zm1.09.46a5.2,5.2,0,0,0-1.12.16l0-.1.94-.3.45-.1.05.17C27.89,20.21,28,20.21,27.8,20.33Zm1-.23a.22.22,0,0,1-.25-.15l.28-.07a.18.18,0,0,1,.24.15l-.27.07Zm2.69-2.9,0-.1.46-.11.05.18Zm2.88,17.65a.65.65,0,0,0,0-.3l.1,0a.17.17,0,0,1,.23.13l0,.1-.37.09Zm2-16.9-.21,0a7.45,7.45,0,0,1-.84.28l-.19,0a.18.18,0,0,1-.24-.13l1.34-.31.44-.21.15.17a1,1,0,0,0-.45.19Zm1-.33,0-.09a.55.55,0,0,0,.25-.17l1-.22,0,.1A7.31,7.31,0,0,0,37.42,17.62Zm.15-1.93a.65.65,0,0,0-.26.16c0-.07-.15-.07-.4,0q-.07-.27,2.13-.78l.2,0,0,.17-1.72.5Zm2.58-2.79c-.11,1.17-.52,1.84-1.25,2l0-.1-.65.25-.28.07a.77.77,0,0,1-.4,0l-.06-.26A40,40,0,0,1,40.3,11l.22,0a4,4,0,0,1-.37,1.88ZM44.7,9h-.09V8.83l.38,0v.09ZM42.83,27.85a1.27,1.27,0,0,0-.59-.13l0-.28c0-.09.05-.16.17-.2s.2.08.22.27a2.68,2.68,0,0,1,.53-.61l.19.08C43.26,27.54,43.09,27.83,42.83,27.85ZM63,6.8c-.09,0-.28-.29-.57-.88V5.73c.18,0,.38.28.57.87v.2Zm-.26-2.1-.09.19L59.87,3.75C61.69,3.81,62.63,4.12,62.69,4.7ZM51.14,14.61l-.39,0v-.19l.38,0Zm-.32-5.95h.1l0,.28c-.1,0-.22.14-.36.4V9.14a.8.8,0,0,0,.24-.48ZM50,10.57l0,.36h-.11l0-.36Zm-.44.68h.19c0,.31-.1.47-.24.49h-.1a.92.92,0,0,0,.15-.48Zm-.31.95h.09v.1l-.17.29H49V12.5q.3,0,.27-.3Zm-.3.85-.07.47h-.09l0-.46.2,0ZM45.82,22c-.12.62-.26.93-.4.95v-.08a1.06,1.06,0,0,1,.4-.87Zm-.58,1.24v.08c0,.14,0,.21-.18.22v-.1c0-.09.06-.16.18-.2Zm-.16,2.59.29,0v.1a.82.82,0,0,0-.29.11H44.9c0-.1.05-.17.18-.2Zm8.26-2.55a17.09,17.09,0,0,0-2.88,1.63c-1.77.62-2.64,1-2.63,1.15a29.46,29.46,0,0,0-3.08,1.36,1.11,1.11,0,0,1-.51-.13.79.79,0,0,1,.43-.77,1.57,1.57,0,0,1,.78.12,9,9,0,0,1,1.53-.5l0-.18-.59,0a7.74,7.74,0,0,1,1.69-.79l.29,0v.09q-.75.06-.84.45a.16.16,0,0,0,.21.16c.37-.24.54-.38.54-.42q1.06-.19,5.88-3.09l0,.19c0,.07-.27.31-.83.71Zm-4.93,1.62a2,2,0,0,0,1.23-.55c.12,0,.19,0,.2.16a4.8,4.8,0,0,0-1.31.56h-.1l0-.18Zm8-6.12-2.45,2a23.33,23.33,0,0,1-3,1.81q-4.38,2.41-5.44,2.5H45.4q.14-.49,3.91-8a21.74,21.74,0,0,0,5.22-1.56l.6,0a3.3,3.3,0,0,1,2.68.69l0,.37c-.45,1.26-.93,2-1.46,2.23Zm-4.82-2.71L52,16v.09l-.38,0Zm5.58-1,.29,0c.27.14.41.25.42.35v.08A.82.82,0,0,1,57.14,15.1Zm.77-4.48a11.52,11.52,0,0,1-2.1,1.58,27.2,27.2,0,0,0-4.24,1.64.84.84,0,0,0-.39-.05V13.6a2.29,2.29,0,0,1,.46-1.33c.19-1,.4-1.58.63-1.71L54.31,6q0-.4,1.29-.66l.3,0,0,.28,1.64-.25c1.61-.14,2.46.19,2.53,1h.19l0-.44.19,0a1.21,1.21,0,0,1,.75.94,1.47,1.47,0,0,1-.39,1c-.12,0-.19-.07-.21-.26h-.19L60.33,8c-.82,1.25-1.41,1.89-1.79,1.92-.33.45-.54.67-.63.68Zm.86,3.06,0-.28h.19l.41.25c0,.12-.05.18-.18.2a.8.8,0,0,0-.4-.16ZM24.5,31.56l-.19.05-.16.14c0,.12.1.16.23.13s.18-.1.15-.22l0-.1Zm-.72-1.45,0,.1A.17.17,0,0,0,24,30l0-.1a.17.17,0,0,0-.14.22ZM29,20.32l.14-.08-.08,0A.08.08,0,0,0,29,20.32Zm0-2.54.22-.05-.05-.19-.22.05Zm52,7.44-.5-.06-.09.19v.1l3-.25,0-.19ZM83.7,25l0,.18h0l0-.18Zm12.51-1.63v.18l.33.06,0-.18Zm-.46,0a12.11,12.11,0,0,1-3,.45l0,.19.2,0h.11l0,0,.25-.09c2.21-.25,2.47-.16,2.45-.41ZM82.32,20.14l-.2-.07a4.39,4.39,0,0,0-.24.77v.08C82.05,20.91,82.19,20.65,82.32,20.14Zm-2.7-1.45v-.1h-.11l-.18.12.1.18c.14,0,.21-.09.19-.21Zm5.86,6,0-.18H85.4l0,.19ZM97.62,22h.14c.08,0,.12-.08.11-.19l-.08-.18a2.46,2.46,0,0,0-1.16.29v-.09l-.61.06c0-.19-.07-.28-.15-.28l-.32,0c-.37,0-.54,0-.73.16,0-.07,0-.1-.06-.1l-.36,0-.2.12c0-.07,0-.1-.07-.1l-.12.11v-.09l-.49,0h-.12v.18l.25.07h.24a.41.41,0,0,0,.27.05l.21-.1V22a14.29,14.29,0,0,1-1.95.37c-.09-.06-.15-.09-.2-.08h0c-.09,0-.14-.06-.15-.16l.41-.05a2.06,2.06,0,0,0,.28.07c.33-.16.35-.22.53-.24l0-.18a12.57,12.57,0,0,1-2.1.2h-.06l0-.18a7,7,0,0,0,1.84-.27c0,.06,0,.09.07.09a.39.39,0,0,1,.25-.12h.12a6.72,6.72,0,0,0,2.12-.28v.08l.21-.1.19,0c0-.18.26-.21.36-.22l0-.2c-2.22.45-2.8.33-3.42.5v-.08a2.59,2.59,0,0,1-.75.07.37.37,0,0,0-.18.12c0-.07,0-.1-.07-.1h0l-1.89.31c0-.05,0-.08-.07-.08a9.41,9.41,0,0,1-2,.37.51.51,0,0,0-.25.1c0-.05,0-.08-.1-.08l-.8.07-.54.13A.08.08,0,0,0,86,22a5,5,0,0,1-.78.15h0c-.13,0,.07,0,0-.08l-.17.09c-.23,0-.11,0-.92,0-1.42.18-1.26.2-1.42.21l-.53,0c0,.06,0,.09-.08.09-.6-.08-.91-.17-.92-.29.08-.57.22-.86.42-.88h.11l-.09.2h.1c.19-.1.28-.2.27-.29v-.2l-.19,0,0-.19a.69.69,0,0,1,.06-.36l.43-.7,0,.18h.21l0-.19-.12-.17a.84.84,0,0,1,.37-.21v-.1l-.28,0,0-.28a7.63,7.63,0,0,0,.81-2l.2.08c.13,0,.18-.08.18-.21l-.19,0v-.09a.67.67,0,0,1,.07-.39,1.22,1.22,0,0,0,.41-1c.06,0,.09,0,.1.09a1.76,1.76,0,0,0,.6-1.19,35.23,35.23,0,0,0,2-4.94,28.25,28.25,0,0,0,1.79-5.85l-.2,0a.6.6,0,0,1-.07.37.73.73,0,0,0-.31-.07V3.69a2.26,2.26,0,0,1,.48-1.36h.09l.16.63.19,0s.05-.29.15-.75c0-.1-.08-.16-.23-.17l-.18.12a8.93,8.93,0,0,1,0-1h-.09A.75.75,0,0,1,88,.71L87,.82a1.12,1.12,0,0,0-.12-.33c0-.09.23-.19.71-.28l.21.08L88,.17c0,.07.05.09.12.09l.2-.12c0,.07,0,.1.12.09h.09V0c-.15,0-.54,0-1.16,0l-.2.13V0L78.7.71c-.08,0-.43,0-1,0,0,.08-.07.12-.22.14l-.21-.1-.72.19a5.87,5.87,0,0,1-.85,0,.79.79,0,0,1-.41.16L77.36.91a.93.93,0,0,1-.51.16A.65.65,0,0,1,76.43,1a13.4,13.4,0,0,1-1.56.37l-.21-.08-3.45.53a.86.86,0,0,0-.46-.08,7.28,7.28,0,0,0-.92.2l-1.67.7.13.2a1,1,0,0,0,.34-.13l.59,0-.08.55a1.52,1.52,0,0,0-1,1.06C67.38,4.73,67,5,67,5.15v.09h.12l.22-.11.26.31,0,.42q0,.2-4.12,8.68c-2.38,5.45-3.63,8.43-3.75,9-.82.22-1.29.56-1.43,1,0,.14.26.23.73.27l0,.21-.21.36,0,.42c0,.22.61.39,1.78.51,0-.07,0-.12.11-.12a6,6,0,0,1-.22,1.54h.13a2.78,2.78,0,0,0,.69-1.36h.1c.12,0,.25.12.39.41a18.1,18.1,0,0,0-1.54,3.52l.12.2h.13a25.26,25.26,0,0,1,2-4.54q2.13-.2,7.37-.75l.22-.14c0,.08,0,.11.13.11l.23,0L70.8,25a.1.1,0,0,0,.13.1l2.64-.22c.7-.06,1-.28,1-.64,0-.09.41-.2,1.24-.32a.82.82,0,0,1,.36.07c0-.07.41-.14,1.25-.21,0-.44.16-.68.41-.7l0-.21A3.76,3.76,0,0,0,77,23a5.27,5.27,0,0,1-1-.12,1.06,1.06,0,0,1-.34.13l-1.84.06-.22.11c0-.06,0-.09-.13-.08h-.1l-.24.12c0-.07-.2-.12-.58-.17l-.24.14-.45,0v-.12q3.56-.39,3.51-1a.2.2,0,0,1,.25.21l.69-.18,0-.21-5.68.15c0,.08,0,.12-.11.13l-.69-.06a.9.9,0,0,0-.44.16l-.26-.1a7.86,7.86,0,0,0-1.59.26,9.85,9.85,0,0,0-1.62,0l-1.28.11L64,22.58c0-.37.7-2.22,2.21-5.53A4.88,4.88,0,0,1,67.39,15a1.15,1.15,0,0,1,.36.09l.91-.31.46.08a10.81,10.81,0,0,0,2.72-.67,1.29,1.29,0,0,1,.59,0l.69-.16,2.06-.18A13.2,13.2,0,0,0,78,13.28l0-.21c-.38,0-.58,0-.6-.19s-.3-.4-.84-.36l0-.21.57-.16L78.62,12l0-.21c-.06,0-.36,0-.92,0l0-.22.58-.05c.15,0,.22-.09.2-.24q-1.16,0-1.17-.12-8.08.4-8.1.15a.92.92,0,0,0-.34.15l-.14-.22c1.43-3,2.26-4.57,2.51-4.59a1.26,1.26,0,0,1-.18.57V7.3l.23,0c.56-1.35,1-2,1.44-2.08,1.69-.15-.24-.26,3.39-.83a.62.62,0,0,0,.32.09q2.13-.43,5.94-.9V3.35L81,3.47V3.26a.75.75,0,0,0,.4-.15v.11a.7.7,0,0,0,.31-.14.93.93,0,0,1,.53.06,9.1,9.1,0,0,1,1.14-.23l.84-.08q.32-.19.3-.36V2.38a2.46,2.46,0,0,1-.74,0,.21.21,0,0,1,.19-.23L85.51,2l.72-.18c0,.08,0,.11.1.11a.84.84,0,0,0,.31-.15h.12a5.33,5.33,0,0,0-.32.87h-.21a.89.89,0,0,0-.11-.37H86c-1.91,5.33-2.76,7.81-4.53,11.91-.33,1-.6,1.62-.83,1.75,0,.11.08.17.2.16a2.5,2.5,0,0,1-.36,1.52,14.84,14.84,0,0,1-1.64,3.88L79,22.58a.17.17,0,0,1-.17.2l-.19,0c0-.31-.14-.46-.34-.44h-.1a4.07,4.07,0,0,0-.57,1.36h.19a.62.62,0,0,0,.35-.6l.39,0,.22.08a1.24,1.24,0,0,0-.25.67l.11.18-.25.59v.1a1.19,1.19,0,0,1,.73.2,1.27,1.27,0,0,0,.58-.23c.22,0,1,0,2.46,0l.72-.25a14.06,14.06,0,0,0,1.76-.05l.3,0,.17-.11v.1a4.54,4.54,0,0,1,1.46.06v.09l-.44,0,0,.18a.63.63,0,0,0,.35-.13c.11,0,.17.05.18.19a2.1,2.1,0,0,0-.6.13l-.19-.07a2,2,0,0,1-.44.12l-.3-.06a.07.07,0,0,1-.08.09.16.16,0,0,0,.19.17l.31,0,1.61-.14.61-.13c0,.05,0,.08.08.07l.3-.11.55,0c.43,0,.42-.07,1.35-.22,0-.06,0-.08,0-.09v.08A12.69,12.69,0,0,0,92,24.15l0,.05c.38-.09.16-.07.27-.14s0,.09.06.09l.27,0,0-.2H92v0a2.9,2.9,0,0,1-.61,0L90,24.06V24l.75-.1.27,0,.16-.11v.1A25.17,25.17,0,0,0,97.51,23c.27,0,.24-.24.41-.7a.36.36,0,0,1-.25-.06,7.63,7.63,0,0,1-1.4.21c-.07,0-.12,0-.14-.17v-.08l.75,0a1.94,1.94,0,0,0,.82-.26c0,.06-.16.1-.07.09Zm-36.24.58-.35,0A6.78,6.78,0,0,1,61.58,21l.23,0A5.89,5.89,0,0,1,61.38,22.58Zm.42-1.67v-.1c0-.12.06-.2.23-.24v.1C62,20.81,62,20.89,61.8,20.91Zm4.6,3.55v.1l-.57.05v-.1Zm-.7-.06c0,.12-.17.25-.55.38l-.7-.05-.23,0,0-.21ZM70.36,3,70,3V2.9c0-.12.06-.2.21-.24h.12l.24.09Q70.59,3,70.36,3Zm5.26-1h.11v.21l-.31,0A.21.21,0,0,1,75.62,2Zm-1.33.46-.52-.06V2.27A6.17,6.17,0,0,0,75.1,2c0,.08.08.11.21.09v.22l-.2,0a.72.72,0,0,1-.42-.08A.79.79,0,0,1,74.29,2.42ZM75,4.33v-.1l.85-.08v.1Zm.9-.74V3.47l.41,0v.12ZM76,2.15h-.11l.1-.23.94-.09V2A5.76,5.76,0,0,0,76,2.15Zm.48,2,0-.21.42,0c.14,0,.21,0,.22.2l-.62,0ZM78.92.78l-.53.15H78.3a4.53,4.53,0,0,1-1,0c.69,0,1.34-.09,1.58-.13Zm-.56,2.36v.09l-.73.07V3.2Zm1.19.56c0-.09-.15-.14-.43-.17l-.73.2-.56,0c-.13-.08-.19-.14-.2-.19l.65,0,1.45-.24.75,0v.12a4.34,4.34,0,0,0-.93.19Zm7.5-1.93h.17a2.59,2.59,0,0,1,.88-.58,5.2,5.2,0,0,1-1.25,2.58l-.41-.25A13.39,13.39,0,0,0,87.05,1.77ZM85.78,3.94h.11c-.14.27-.27.41-.37.41l0-.28a.6.6,0,0,0,.28-.12ZM85,5.89a2.79,2.79,0,0,1,.56-1.36v.09c-.1.74-.26,1.13-.48,1.16l0,.46a1,1,0,0,0-.25.59h-.1l-.06-.64C84.81,6.18,84.9,6.08,85,5.89ZM84.65,7a2.72,2.72,0,0,1-.21.76h-.11l0-.28c.14-.32.26-.48.34-.49ZM78.71,24.19v-.08l.19,0,0,.28q-.17,0-.21-.18Zm8.49.22c0-.07,0-.1-.1-.09l-.48,0v-.09h0l1.14-.1v.1A1,1,0,0,0,87.2,24.41Zm-.57-.24c.05,0,0,0,0,.06S86.58,24.2,86.63,24.17Zm.06-1.32-.63,0v-.1l.57-.05.5-.12c0,.06,0,.08.11.07.59-.1.53-.13.82-.15.1,0,.16.05.16.17l-1.52.13Zm2.22-.19a2.57,2.57,0,0,0-.63-.05v-.08l.57-.05v.08C88.79,22.57,89,22.58,88.91,22.66Zm0-.11v-.08l.31,0v.08Zm.68-.05v-.09a.48.48,0,0,0,.22-.11.21.21,0,0,1,.25.2Zm.88-.12v-.09l.38,0v.1Zm.52,0c0-.11,0-.18.14-.19l.12.16a.07.07,0,0,1,.06-.09l.1.18L91,22.34Zm7.25-.85h0v0Zm.13-.1c.06,0,.09-.07,0-.09s.07.09-.08.1v.06l.08-.05-.08.06h0l-.15.2.31-.11h0v-.19Zm.54.42h-.06V22l.44,0C99.33,21.85,99,21.81,99,21.81Z"/>
</svg>