<svg xmlns="http://www.w3.org/2000/svg" viewBox="0 0 50 50">
  <defs>
    <style>.cls-1{fill:#fff;}</style>
  </defs>
  <circle cx="25" cy="25" r="25"/>
  <path class="cls-1" d="M11.67,17.42C9,20.81,9.22,22.24,9.16,25,9,30.51,12.3,36,20.39,36.64a4.86,4.86,0,0,0-1.52,3.42c-3.34,1.35-5.32.23-6.16-.71a24,24,0,0,1-2-2.67,4.39,4.39,0,0,0-3.23-1.37c-.89.14-.86.52-.38,1s1.7.74,2.93,3.27c1.09,3.83,4.74,4.91,8.74,3.94l0,5c0,.58-.19.67-.3.62a25.48,25.48,0,0,0,12.91,0c0-.09-.38.18-.3-1.18.05-4.62.56-9.38-1.6-11.34,8.4-.87,11.34-5.95,11.15-11.66.12-2.58-.05-5.08-2.46-7.58A10,10,0,0,0,38,10.56a11.56,11.56,0,0,0-6.71,2.69,23.07,23.07,0,0,0-12.58,0c-2.4-1.63-4.76-2.86-6.73-2.67A9.67,9.67,0,0,0,11.67,17.42Z"/>
  <ellipse cx="9.21" cy="36.34" rx="0.25" ry="0.4" transform="translate(-26.87 26.15) rotate(-60)"/>
  <ellipse cx="10.22" cy="37.34" rx="0.3" ry="0.48" transform="translate(-24.13 19.48) rotate(-47.22)"/>
  <ellipse cx="11.23" cy="38.72" rx="0.33" ry="0.55" transform="translate(-21.66 15.4) rotate(-38.48)"/>
  <ellipse cx="12.44" cy="40.13" rx="0.39" ry="0.56" transform="translate(-24.74 20.55) rotate(-45)"/>
  <ellipse cx="14.18" cy="41.17" rx="0.39" ry="0.56" transform="translate(-29.04 35.92) rotate(-64.07)"/>
  <ellipse cx="16.17" cy="41.45" rx="0.58" ry="0.38"/><ellipse cx="18.08" cy="41.23" rx="0.52" ry="0.38" transform="translate(-5 2.58) rotate(-7.16)"/>
</svg>