<svg xmlns="http://www.w3.org/2000/svg" viewBox="0 0 99.92 39.45">
  <defs><style>.cls-1{fill:#231f20;}.cls-2{fill:#536657;}.cls-3{fill:#00a75d;}</style></defs>
  <path class="cls-1" d="M40.47,12l2.6-.63V23.93q0,2.05,1.23,2.46a2.14,2.14,0,0,1-2.06,1.14q-1.77,0-1.77-2.46V12Z" transform="translate(0 0)"/>
  <path class="cls-1" d="M48.35,11.84a1.45,1.45,0,0,1,1.07.45,1.51,1.51,0,0,1,0,2.13,1.44,1.44,0,0,1-1.07.44,1.51,1.51,0,0,1,0-3ZM47,27.33v-9H45.58V16.17h4.07V27.33Z" transform="translate(0 0)"/>
  <path class="cls-1" d="M59.86,27.33V20.88a3.27,3.27,0,0,0-.55-2.09,2.2,2.2,0,0,0-1.79-.65,3.15,3.15,0,0,0-2.24,1.12v8.07h-2.6V16.17h1.87l.48,1A3.88,3.88,0,0,1,58.17,16a4.19,4.19,0,0,1,3.14,1.19,4.6,4.6,0,0,1,1.15,3.33v6.85Z" transform="translate(0 0)"/>
  <path class="cls-1" d="M67.25,21.72q0,3.69,2.66,3.69a2.27,2.27,0,0,0,1.93-1,4.48,4.48,0,0,0,.72-2.73c0-2.42-.89-3.64-2.65-3.64A2.3,2.3,0,0,0,68,19a4.38,4.38,0,0,0-.72,2.68Zm-2.71,0A5.93,5.93,0,0,1,66,17.56,5,5,0,0,1,69.91,16a5.08,5.08,0,0,1,4,1.54,6,6,0,0,1,1.41,4.22A6,6,0,0,1,73.83,26,5.7,5.7,0,0,1,66,26a6.15,6.15,0,0,1-1.42-4.23Z" transform="translate(0 0)"/>
  <path class="cls-1" d="M84.53,18.83a2.79,2.79,0,0,0-1.74-.66,3,3,0,0,0-2.41.95,4,4,0,0,0-.84,2.74q0,3.48,3.35,3.48a2.6,2.6,0,0,0,.93-.23,1.72,1.72,0,0,0,.71-.45V18.83Zm0,8.5v-.68a2.77,2.77,0,0,1-1.1.62,4.73,4.73,0,0,1-1.59.26,4.68,4.68,0,0,1-3.67-1.48,5.92,5.92,0,0,1-1.34-4.12,6.07,6.07,0,0,1,1.54-4.31A5,5,0,0,1,82.22,16a5.09,5.09,0,0,1,2.31.52V12l2.6-.63V27.33Z" transform="translate(0 0)"/>
  <path class="cls-1" d="M91.82,20.58H97.3a2.44,2.44,0,0,0-2.71-2.44,2.68,2.68,0,0,0-2.77,2.44Zm7.88,2h-8a2.84,2.84,0,0,0,.92,2.08,3.33,3.33,0,0,0,2.27.74,3.68,3.68,0,0,0,2.71-.93l1,2a6.46,6.46,0,0,1-4.11,1.11,5.43,5.43,0,0,1-4-1.49A5.67,5.67,0,0,1,89,21.87a5.79,5.79,0,0,1,1.63-4.28,5.72,5.72,0,0,1,7.81-.18,4.93,4.93,0,0,1,1.47,3.68,7.71,7.71,0,0,1-.22,1.45Z" transform="translate(0 0)"/>
  <path class="cls-2" d="M8.22,17.73,6.72,7.52.58,3.7l2,9.63,5.65,4.4ZM9.93,29.42,8.87,22.21,3.48,17.72l1.45,7,5,4.71Zm-4.19-.8,1.07,5.16,4.45,4.72-.76-5.2L5.74,28.62Zm14.41-2.23-2.27-1.73v.4a.23.23,0,0,1-.1.21l-1.71,1.15L17.94,28h0l0,0v0a.05.05,0,0,1,0,0v.07l.07,1.78,2.09,1.76,0-5.27ZM28,20.81,27.5,26l-1.47-1,.16-2.62h0v-.05a.14.14,0,0,0,0-.06h0a.1.1,0,0,0,0-.05h0l0,0L22.91,20,23,17.71l5,3.1Z" transform="translate(0 0)"/>
  <path class="cls-3" d="M16.93,13.65l-.41-9.71L7.2,7.53,8.72,17.92l8.21-4.27ZM17.42,25l-.31-7.15L9.35,22.21l1.09,7.44,7-4.7Zm.15,3.62L11,33.3l.81,5.47,6-4.8-.23-5.4Zm3.05-2.18.05,5.29,4.7-3.75.31-5.16-5.06,3.62ZM32.35,18l-.66,4.9-3.71,3,.44-5L32.35,18Z" transform="translate(0 0)"/>
  <path class="cls-1" d="M18,28.12v-.07a.05.05,0,0,0,0,0v0l0,0h0l-1.86-1.53,1.71-1.15a.23.23,0,0,0,.1-.21v-.4l2.27,1.73,0,5.27L18.1,29.9,18,28.12ZM8.87,22.21l1.06,7.21-5-4.71-1.45-7,5.39,4.49ZM17.42,25l-7,4.7L9.35,22.21l7.76-4.41L17.42,25Zm-.9-21,.41,9.71L8.72,17.92,7.2,7.53l9.32-3.59ZM6.72,7.52l1.5,10.21-5.65-4.4L.58,3.7,6.72,7.52Zm.09,26.26L5.74,28.62,10.5,33.3l.76,5.2L6.81,33.78Zm11,.19-6,4.8L11,33.3l6.6-4.73L17.8,34Zm7.57-6-4.7,3.75-.05-5.29,5.06-3.62-.31,5.16Zm.66-3,.16-2.62h0v-.05a.14.14,0,0,0,0-.06h0a.1.1,0,0,0,0-.05h0l0,0L22.91,20,23,17.71l5,3.1L27.5,26l-1.47-1Zm1.95.92.44-5L32.35,18l-.66,4.9-3.71,3Zm4.92-8.37v0s0,0,0,0v0l0,0,0,0,0,0h0l-5.39-3a.23.23,0,0,0-.24,0l-4.54,2.77,0,0,0,0a0,0,0,0,1,0,0s0,0,0,0l0,0s0,0,0,0v0s0,0,0,0l0,2.41L20.6,18.47a.24.24,0,0,0-.26,0L17.68,20.1l-.11-2.71v-.05s0,0,0,0v0l0,0,0,0,0,0,0,0-2.77-1.85L17.29,14a.23.23,0,0,0,.12-.22L17,3.6s0,0,0,0v0s0,0,0,0h0l0,0h0l0,0h0L9.86,0a.25.25,0,0,0-.17,0L.16,3h0l0,0h0l0,0,0,0v0a.06.06,0,0,0,0,0,0,0,0,0,1,0,0H0v.07H0L2.13,13.51a.22.22,0,0,0,.08.14L5.1,15.9,3,16.89H3l0,0,0,0a.08.08,0,0,0,0,0v0a.14.14,0,0,0,0,.06h0v.06h0l1.6,7.72a.24.24,0,0,0,.07.12l2,1.9-1.33.81-.05,0h0l0,0v0a.14.14,0,0,0,0,.06.16.16,0,0,0,0,.07h0l1.24,6a.24.24,0,0,0,.06.11l5,5.32s0,0,0,0h0l0,0h0l.08,0h.13l0,0,6.44-5.13a.25.25,0,0,0,.09-.19l-.15-3.53,2.15,1.81h0l0,0h.21l0,0h0l5.17-4.12a.28.28,0,0,0,.09-.17L26,25.48l1.58,1.1h.23l0,0h0l4.21-3.36a.26.26,0,0,0,.09-.16l.75-5.53h0v0Z" transform="translate(0 0)"/>
</svg>