<svg xmlns="http://www.w3.org/2000/svg" viewBox="0 0 97 67.24">
<defs>
<style>.cls-1{fill:none;}.cls-2{fill:#5d87a1;}.cls-3{fill:#f8981d;}</style>
</defs>
<title>mysql-logo</title>
<g id="Layer_2" data-name="Layer 2">
<g id="Layer_12" data-name="Layer 12">
<path fill="none" d="M0,0H97V67.24H0Z"/>
<path fill="#5d87a1" d="M29.68,54.28H27.06q-.14-6.64-.77-12.49h0l-4,12.49h-2l-4-12.49h0q-.45,5.61-.56,12.49h-2.4q.22-8.36,1.16-15.67h3.26l3.78,11.52h0l3.81-11.52h3.11q1,8.56,1.21,15.69m11.4-11.58q-1.62,8.72-4.24,12.65-2,3-4.49,3A4.34,4.34,0,0,1,30.77,58v-1.4a6.74,6.74,0,0,0,1.08.07,2.65,2.65,0,0,0,1.84-.63,2.28,2.28,0,0,0,.84-1.71,11.28,11.28,0,0,0-.66-2.68l-2.88-9h2.58l2.07,6.7a8.84,8.84,0,0,1,.58,3.18,43.87,43.87,0,0,0,2.37-9.84h2.5v0Z"/>
<path fill="#f8981d" d="M76.05,54.32H68.56V38.61h2.52V52.38h5Zm-9.43.36-2.88-1.43a4.75,4.75,0,0,0,.72-.7q1.85-2.16,1.84-6.39,0-7.78-6.11-7.78a5.8,5.8,0,0,0-4.68,2c-1.22,1.44-1.83,3.57-1.83,6.37s.54,4.78,1.62,6.07a5.6,5.6,0,0,0,4.49,1.74,7.08,7.08,0,0,0,2.06-.28l3.75,2.19Zm-9.34-3.52a9.73,9.73,0,0,1-1-4.93q0-5.92,3.6-5.92a3,3,0,0,1,2.77,1.41,9.64,9.64,0,0,1,.95,4.88q0,6-3.6,6a3,3,0,0,1-2.77-1.42M52.58,50a4.16,4.16,0,0,1-1.46,3.28,5.79,5.79,0,0,1-3.93,1.28A7.84,7.84,0,0,1,42.73,53l.68-1.35a7.64,7.64,0,0,0,3.36.93A3.55,3.55,0,0,0,49,52a2.14,2.14,0,0,0,.86-1.75c0-.93-.65-1.72-1.84-2.39S44.71,46,44.71,46a3.76,3.76,0,0,1-1.79-3.34,3.91,3.91,0,0,1,1.33-3.08,5.09,5.09,0,0,1,3.46-1.17,7.17,7.17,0,0,1,4,1.16l-.61,1.35a7.72,7.72,0,0,0-3-.65,2.67,2.67,0,0,0-1.85.58,1.94,1.94,0,0,0-.71,1.49c0,.93.67,1.73,1.89,2.42s3.37,1.88,3.37,1.88A3.72,3.72,0,0,1,52.58,50"/>
<path fill="#5d87a1" d="M79.16,33.35a8.88,8.88,0,0,0-3.68.54c-.28.11-.73.11-.77.47.15.15.17.4.3.61a4.37,4.37,0,0,0,1,1.15,14.17,14.17,0,0,0,1.21.87c.74.46,1.58.72,2.29,1.18.42.26.84.61,1.26.89.2.15.34.4.6.49v-.1c-.13-.17-.17-.41-.29-.6l-.56-.54a8.86,8.86,0,0,0-1.94-1.88c-.6-.41-1.9-1-2.14-1.66l0,0a7.13,7.13,0,0,0,1.29-.31c.63-.16,1.21-.12,1.86-.29l.89-.26v-.21c-.34-.34-.59-.8-1-1.12a25,25,0,0,0-3.13-2.34c-.59-.38-1.34-.62-2-.94-.23-.12-.61-.17-.74-.36a7.91,7.91,0,0,1-.78-1.47c-.55-1-1.08-2.2-1.56-3.3a21.1,21.1,0,0,0-1-2.16A19.14,19.14,0,0,0,63,14.88a9,9,0,0,0-2.42-.78L59.14,14a7.18,7.18,0,0,1-.87-.67c-1.08-.68-3.87-2.16-4.67-.21-.51,1.24.76,2.45,1.2,3.08a8.43,8.43,0,0,1,1,1.42c.14.33.17.67.31,1a24.25,24.25,0,0,0,1,2.54,8.79,8.79,0,0,0,.71,1.18c.15.21.41.3.47.64a6,6,0,0,0-.44,1.43,8.35,8.35,0,0,0,.56,6.37c.3.48,1,1.52,2,1.12s.66-1.42.91-2.37c0-.23,0-.38.13-.53v0c.27.53.54,1,.78,1.57a11.12,11.12,0,0,0,2.49,2.54c.45.34.81.93,1.39,1.14v-.06h0a2.27,2.27,0,0,0-.44-.38,9.62,9.62,0,0,1-1-1.14,24.05,24.05,0,0,1-2.14-3.45c-.31-.59-.57-1.23-.82-1.82-.11-.22-.11-.57-.31-.68a7.63,7.63,0,0,0-.91,1.29,10.93,10.93,0,0,0-.54,2.86l-.07,0c-.61-.15-.82-.78-1.05-1.31a8.13,8.13,0,0,1-.17-5.06c.13-.4.7-1.65.47-2s-.49-.57-.7-.85a7.35,7.35,0,0,1-.69-1.22c-.46-1.06-.69-2.23-1.18-3.29a10.51,10.51,0,0,0-1-1.47,9.34,9.34,0,0,1-1.06-1.47c-.09-.21-.22-.55-.07-.78a.31.31,0,0,1,.27-.25c.24-.21,1,.06,1.2.17a10.12,10.12,0,0,1,1.89.95c.26.19.55.55.89.65h.45c.6.13,1.28,0,1.85.2a12.32,12.32,0,0,1,2.73,1.31A16.84,16.84,0,0,1,69.58,23c.22.43.32.83.53,1.28.4.93.89,1.88,1.29,2.79a12.51,12.51,0,0,0,1.34,2.54c.29.4,1.43.61,1.94.82A13.78,13.78,0,0,1,76,31c.64.39,1.28.85,1.89,1.29.3.22,1.25.7,1.31,1.08M59.87,16.86a3,3,0,0,0-.78.1v0h0a5.26,5.26,0,0,0,.61.78c.15.31.28.61.43.91l0,0a1.05,1.05,0,0,0,.4-.94c-.12-.14-.13-.27-.23-.4s-.36-.29-.51-.44"/>
<path fill="#f8981d" d="M81,54.32h.42V52.38h-.59l-.48,1.32-.53-1.32h-.57v1.94h.35V52.85h0l.55,1.47h.28L81,52.85v1.47Zm-3.15,0h.43V52.69h.5v-.31H77.25v.31h.54l0,1.61Z"/>
</g>
</g>
</svg>