<svg xmlns="http://www.w3.org/2000/svg" viewBox="0 0 97 20.34"><defs><style>.cls-1{fill:#090;}</style></defs><title>nginx-logo</title><g id="Layer_2" data-name="Layer 2"><g id="Layer_10" data-name="Layer 10"><path class="cls-1" d="M47.24,9.33v8.82a2.1,2.1,0,1,0,4.19,0V9.33ZM72.9.22a2.11,2.11,0,0,0-2.29.46L58.15,13.13v-11a2.09,2.09,0,0,0-2-2.09A2.12,2.12,0,0,0,54,2.2v16a2.11,2.11,0,0,0,2.1,2.11,2.18,2.18,0,0,0,1.48-.62L70,7.25v11a2.1,2.1,0,1,0,4.2,0v-16A2.11,2.11,0,0,0,72.9.22ZM49.31,0a2.17,2.17,0,0,0-2.07,2.13V7.62h4.19V2.13A2.18,2.18,0,0,0,49.31,0ZM41.77,9.25l-8.63,0A2.21,2.21,0,0,0,31,11.4a2.21,2.21,0,0,0,2.15,2.13l5.19,0-1.26,2.55H30.43l-3.3-5.8,3.33-6h7l1.65,3.38H43.4L40.73,1.23,40.15.05H28l0,0L27.37,1.1,22.9,9.24l-.58,1,.58,1,4.47,7.87L28,20.25H39.7l.58-1.19,3.34-6.75,1.51-3.06ZM18.3,0a2.14,2.14,0,0,0-2.22,2.14v11L3.6.63A2.11,2.11,0,0,0,0,2.12V18.18a2.12,2.12,0,1,0,4.23,0v-11L16.7,19.68a2.15,2.15,0,0,0,1.48.62,2.11,2.11,0,0,0,2.1-2.11V2.12A2.11,2.11,0,0,0,18.3,0Z"/><path class="cls-1" d="M96.36,16.69a2.1,2.1,0,0,1,0,3,2.13,2.13,0,0,1-1.5.62,2.11,2.11,0,0,1-1.48-.61l-6.55-6.53L80.3,19.68a2.11,2.11,0,0,1-3-3l6.54-6.51L77.3,3.65a2.11,2.11,0,1,1,3-3l6.56,6.54L93.41.67a2.1,2.1,0,1,1,3,3l-6.55,6.53Z"/></g></g></svg>