<svg xmlns="http://www.w3.org/2000/svg" viewBox="0 0 99.5 97.01">
<defs>
<style>.cls-1{fill:url(#radial-gradient);}.cls-2{fill:#31c5f0;}</style>
<radialGradient id="radial-gradient" cx="-284.42" cy="-231.79" r="0.03" gradientTransform="matrix(2291.67, 0, 0, -2218.75, 651822.57, -514255.94)" gradientUnits="userSpaceOnUse">
<stop offset="0" stop-color="#34364e" stop-opacity="0.98"/>
<stop offset="1" stop-color="#0c0824"/></radialGradient>
</defs>
<path class="cls-1" d="M4.15,4.15h91.2V92.87H4.15Z"/>
<path class="cls-2" d="M4.15,4.15h91.2V92.87H4.15ZM0,97H99.5V0H0ZM67.08,39.8c-3.28,0-4.39,1.66-4.39,3s.74,2.53,5.14,4.81c6.5,3.15,8.54,6.17,8.54,10.61,0,6.63-5.06,10.2-11.9,10.2A18.11,18.11,0,0,1,56,66.67c-.29-.13-.33-.34-.33-.67V59.91c0-.42.2-.54.49-.33A15.41,15.41,0,0,0,64.47,62c3.27,0,4.64-1.37,4.64-3.23,0-1.49-1-2.82-5.14-5-5.89-2.82-8.33-5.68-8.33-10.44,0-5.35,4.18-9.79,11.44-9.79a19.09,19.09,0,0,1,7.42,1.16.93.93,0,0,1,.42.83v5.68c0,.33-.21.54-.63.42a13.9,13.9,0,0,0-7.21-1.87ZM31.43,44.73c1,.09,1.7.09,3.35.09,4.85,0,9.41-1.7,9.41-8.3,0-5.26-3.27-7.91-8.78-7.91-1.66,0-3.24.08-4,.12Zm-7.38-22c0-.29.58-.5.91-.5,2.65-.12,6.59-.21,10.69-.21,11.49,0,16,6.31,16,14.35,0,10.53-7.63,15-17,15-1.58,0-2.12-.08-3.24-.08V67.25c0,.33-.12.49-.49.49H24.54c-.33,0-.49-.12-.49-.49V22.72Z"/>
</svg>