<svg xmlns="http://www.w3.org/2000/svg" viewBox="0 0 100 89.05">
  <defs><style>.cls-1{fill:#61dafb;}</style></defs>
  <path class="cls-1" d="M100,44.54c0-6.63-8.3-12.91-21-16.8,2.94-13,1.64-23.28-4.11-26.58A9,9,0,0,0,70.3,0V4.57a4.72,4.72,0,0,1,2.33.53c2.77,1.59,4,7.64,3,15.43-.22,1.91-.59,3.93-1,6A98.35,98.35,0,0,0,61.68,24.3,99.12,99.12,0,0,0,53.2,14.11c6.65-6.18,12.88-9.56,17.12-9.56V0C64.72,0,57.38,4,50,10.93,42.54,4,35.2.08,29.6.08V4.63c4.22,0,10.47,3.36,17.12,9.5A94.84,94.84,0,0,0,38.3,24.3a94.84,94.84,0,0,0-13,2.24c-.47-2-.82-4-1.06-5.91-1-7.79.22-13.84,3-15.45a4.52,4.52,0,0,1,2.35-.53V.1A9.14,9.14,0,0,0,25,1.24c-5.73,3.31-7,13.6-4.06,26.52C8.26,31.68,0,37.93,0,44.54s8.3,12.9,21,16.79c-2.94,13-1.64,23.28,4.11,26.58a8.94,8.94,0,0,0,4.59,1.14c5.6,0,12.94-4,20.36-10.92C57.5,85,64.84,89,70.44,89a9,9,0,0,0,4.61-1.14c5.73-3.3,7-13.59,4.06-26.52C91.74,57.42,100,51.14,100,44.54ZM73.46,30.94c-.75,2.63-1.69,5.34-2.75,8.05C69.87,37.36,69,35.73,68,34.1s-1.94-3.22-2.94-4.77c2.9.43,5.69,1,8.36,1.61ZM64.13,52.65C62.54,55.4,60.9,58,59.21,60.44c-3,.26-6.11.4-9.21.4s-6.16-.14-9.17-.38c-1.69-2.43-3.35-5-4.94-7.75s-3-5.38-4.23-8.11c1.26-2.73,2.69-5.46,4.21-8.13s3.22-5.37,4.92-7.79c3-.27,6.11-.41,9.21-.41s6.16.14,9.17.39c1.69,2.42,3.35,5,4.94,7.74s3,5.39,4.23,8.12c-1.28,2.73-2.69,5.46-4.21,8.13ZM70.71,50c1.1,2.73,2,5.46,2.81,8.11-2.67.65-5.48,1.21-8.4,1.63,1-1.57,2-3.18,2.94-4.83s1.81-3.28,2.65-4.91ZM50,71.75c-1.89-2-3.79-4.14-5.67-6.52,1.84.08,3.71.14,5.61.14s3.81,0,5.67-.14A81.06,81.06,0,0,1,50,71.75Zm-15.16-12c-2.9-.42-5.69-1-8.36-1.61.75-2.63,1.69-5.34,2.75-8.05.84,1.63,1.71,3.26,2.67,4.89S33.88,58.19,34.88,59.74ZM49.94,17.33a84,84,0,0,1,5.67,6.52c-1.84-.08-3.71-.14-5.61-.14s-3.81,0-5.67.14A77.72,77.72,0,0,1,49.94,17.33Zm-15.08,12c-1,1.57-2,3.18-2.94,4.83s-1.81,3.26-2.65,4.89c-1.1-2.73-2-5.46-2.81-8.11,2.67-.63,5.48-1.18,8.4-1.61ZM16.41,54.85C9.19,51.77,4.53,47.74,4.53,44.54s4.66-7.26,11.88-10.32c1.75-.75,3.67-1.42,5.64-2.06a99.89,99.89,0,0,0,4.59,12.42,97.29,97.29,0,0,0-4.52,12.35,59.27,59.27,0,0,1-5.71-2.08ZM27.37,84c-2.77-1.59-4-7.64-3-15.43a60.3,60.3,0,0,1,1-6,100,100,0,0,0,12.94,2.22A100.2,100.2,0,0,0,46.8,75c-6.65,6.18-12.88,9.56-17.12,9.56A4.86,4.86,0,0,1,27.37,84ZM75.72,68.45c1,7.78-.22,13.84-3,15.45a4.62,4.62,0,0,1-2.35.53c-4.22,0-10.47-3.37-17.12-9.5A95.83,95.83,0,0,0,61.7,64.76a96.4,96.4,0,0,0,13-2.24A55.07,55.07,0,0,1,75.72,68.45Zm7.85-13.6a60,60,0,0,1-5.65,2.06A98.09,98.09,0,0,0,73.34,44.5a96.85,96.85,0,0,0,4.52-12.36c2,.64,3.94,1.33,5.73,2.08,7.22,3.08,11.88,7.12,11.88,10.32s-4.68,7.25-11.9,10.31Z"/>
  <circle class="cls-1" cx="49.98" cy="44.54" r="9.32"/>
</svg>